<?xml version="1.0" encoding="utf-8"?>
<!-- Generator: Adobe Illustrator 27.5.0, SVG Export Plug-In . SVG Version: 6.00 Build 0)  -->
<svg version="1.1"
	 id="svg1" xmlns:sodipodi="http://sodipodi.sourceforge.net/DTD/sodipodi-0.dtd" xmlns:svg="http://www.w3.org/2000/svg" xmlns:inkscape="http://www.inkscape.org/namespaces/inkscape"
	 xmlns="http://www.w3.org/2000/svg" xmlns:xlink="http://www.w3.org/1999/xlink" x="0px" y="0px" viewBox="0 0 401 400"
	 style="enable-background:new 0 0 401 400;" xml:space="preserve">
<style type="text/css">
	.st0{fill:#002E39;stroke:#000000;stroke-width:3;stroke-miterlimit:14.1732;}
</style>
<path id="path14" sodipodi:nodetypes="cssssccsscscssc" class="st0" d="M198,152.8c77.4,51.6,33.2,57.4,14.8,44.2
	c-50.5-45.5-177.3-29.6-152.1-26.8c72,9.4,173.1,77.9,126.7,53.6c-12.7-6.6-88.7-32.3-126.7-26.8c-23.9,3.4,140.9,39.1,101.7,50.8
	c-3.1,0.9,2.7,5.9,5.5,7.5c33.5,19.7,189.5,46.4,174.6-47.3c-2-8.7-8.3,0.8-19.5-0.9c-30.8-4.7-32.3-35.7-34.2-39.5
	c-2.5-5.4,41.2-4.6,30.4-16.1c-5.1-5.4-39,13.3-30.4,10.7c22.6-21.3,32.9-28.7,21.2-30.5c-11-1.7-21.2,25.1-21.2,25.1
	s2.9-25.3-24.2-30.8c-14-2.8-28.6,4.3-39.2,17.4C219.5,150.8,207.4,146.1,198,152.8z"/>
</svg>
